<?xml version="1.0" encoding="UTF-8"?>
<!DOCTYPE svg PUBLIC "-//W3C//DTD SVG 1.1//EN" "http://www.w3.org/Graphics/SVG/1.1/DTD/svg11.dtd">
<!-- Creator: CorelDRAW 2021 (64-Bit) -->
<svg xmlns="http://www.w3.org/2000/svg" xml:space="preserve" width="13.7613mm" height="13.7613mm" version="1.1" style="shape-rendering:geometricPrecision; text-rendering:geometricPrecision; image-rendering:optimizeQuality; fill-rule:evenodd; clip-rule:evenodd"
viewBox="0 0 6084.09 6084.09"
 xmlns:xlink="http://www.w3.org/1999/xlink"
 xmlns:xodm="http://www.corel.com/coreldraw/odm/2003">
 <defs>
  <style type="text/css">
   <![CDATA[
    .fil1 {fill:black}
    .fil0 {fill:#58B030}
    .fil2 {fill:white}
   ]]>
  </style>
 </defs>
 <g id="Ebene_x0020_1">
  <metadata id="CorelCorpID_0Corel-Layer"/>
  <g id="_2544462507120">
   <path class="fil0" d="M2004.91 3951.28c-74.94,-0.75 -523.11,253.77 -616.88,323.23 -91.65,67.95 -160.22,149.74 -265.31,209.7 -162.83,92.93 -240.16,7.56 -203.59,-185.03 53.41,-281.27 319.65,-716.14 528.24,-896.48 138.74,-119.9 250.55,-174.28 275.75,-196.21l-177.16 -57.25c-57.25,-24.63 -99.83,-48.81 -149.74,-78.34 -196.21,-116.23 -188.61,-125.21 -328.05,-256.6l-152 -194.62c-48.28,-74.36 -407.28,-654.38 -91.74,-557.64 219.07,67.2 292.02,183.39 677.28,245.73 171.32,27.72 298.16,40.23 471.78,40.28 -4.55,-65.39 -6.94,-114.46 28.25,-154.34 26.62,-30.15 84.44,-50.05 134.27,-32.5 -1.46,-26.04 -61.45,-155.4 -78.03,-199.31 -87.27,-231.36 -108.8,-442.25 -161.68,-679.13 -26.13,-117.12 -97.04,-356.48 -86.92,-478.33 17.55,-210.89 208.63,-174.02 313.95,-68.4l191.08 237.95c170.92,216.99 459.27,425.54 621.61,639.17 142.14,187.06 109.34,179.59 202.67,347.06 109.87,-125.96 166.5,-210.54 266.02,-346.35 116.67,-159.29 534.16,-773.35 661.76,-844.71 89.48,-50 175.34,-27.19 175.34,89.57 0,256.38 -78.34,721 -152.13,974.51l-96.47 266.82c93.86,-59.24 389.28,-280.52 392.69,-72.29 3.01,187.46 -102.57,341.4 -179.76,455.38 57.3,1.46 309.08,-61.76 370.32,-80.47 124.68,-37.98 205.72,-75.42 318.19,-129.54 89.57,-43.06 203.33,-119.33 306.61,-141.21 404.27,-85.59 41.91,546.46 -211.77,774.94 -290.07,261.29 -527.05,289.32 -572.27,322.74 240.47,41.65 603.62,259.43 775.34,375.62 110.4,74.76 482.26,335.65 276.9,475.89 -96.29,65.74 -283.35,47.44 -408.47,47.7 -294.32,0.66 -841.92,-91.3 -873.97,-90.19 37.89,74.05 79.18,195.95 79.18,300.59 0,255.72 -253.2,75.87 -295.86,55.53 19.32,66.41 231.93,461.7 294.76,612.77 110.04,264.52 106.77,563.74 -257.05,347.95 -236.71,-140.37 -538.32,-420.23 -717.78,-633.73 -107.96,-128.39 -104.34,-157.61 -177.38,-270.62 -17.95,26.44 -31.74,61.28 -49.47,92.49 -117.38,206.69 -241.66,303.95 -397.59,625.9 -55.22,114.02 -149.3,302.94 -256.16,328.49 -190.15,45.45 -236.4,-198.69 -235.43,-345.73 1.95,-187.06 -6.06,-255.06 5.26,-464.22 -22.72,1.95 -24.27,9.06 -53.27,32.36 -19.72,15.83 -30.28,24.36 -54.34,37.36 -369.7,199.88 -208.63,-587.17 -66.94,-806.51zm792.36 -3844.68c-601.28,50.27 -1140.92,276.63 -1582.07,624.58 -74.32,58.58 -132.19,112.52 -196.48,168.93 -170.79,149.79 -372,416.65 -493.27,612.2 -94.97,153.1 -173.4,314.52 -242.77,497.03 -145.19,382.16 -214.78,827.69 -176.32,1280.37 130.56,1536.88 1479.36,2823.97 3182.26,2685.59 1535.51,-124.77 2824.41,-1484.93 2686.83,-3180.18 -124.63,-1535.25 -1484.01,-2830.21 -3178.19,-2688.51z"/>
   <path class="fil1" d="M3634.59 4209.25c128.21,-52.17 266.11,276.5 305.41,346.62 77.5,138.43 280.12,524.26 294.01,690.5 13.26,158.5 -109.03,71.98 -173.53,29.4 -173.35,-114.42 -319.74,-222.96 -459.36,-362.62 -29.53,-29.53 -54.07,-51.2 -83.78,-80.86 -104.87,-104.65 -218.54,-230.52 -291.22,-366.74 -51.82,-97.13 -38.82,-147.89 9.11,-243.47 198.95,-396.71 289.54,183.35 570.95,478.55 0.04,-97.53 -251.56,-386.72 -171.59,-491.37zm-1369.06 623.3c0,-56.37 3.85,-109.56 9.99,-164.29 13.31,-118.84 39.13,-98.5 169.73,-249.93 97.04,-112.56 171.14,-194.71 253.16,-331.45 24.4,-40.67 35.15,-67.73 91.87,-60.53 16.05,70.83 -111.28,266.82 -146.61,343.61 -42.75,92.98 -105.58,277.52 -107.57,394.01l21.09 -33.03c1.72,-4.02 9.24,-30.28 10.65,-34.84l67.38 -179.01c38.07,-94.7 122.64,-248.69 183.92,-327.61 21.18,-27.28 52.74,-68.13 105.05,-43.5 52.17,24.63 86.92,162.26 86.92,238.96 0,78.61 -45.8,141.17 -80.07,190.55 -145.99,210.49 -178.84,241.53 -325.44,496.58 -43.11,75.03 -155.76,311.6 -217.21,331.94 -146.21,48.32 -122.86,-454.8 -122.86,-571.48zm641.2 -1116.78c105.49,-34.26 333.58,39.53 388.09,96.69 63,66.1 20.91,119.95 -19.9,174.95 -130.47,175.74 -115.3,310.45 -228.04,191.57 -76.57,-80.73 -344.67,-396.84 -140.15,-463.2zm-659.19 438.49c40.81,-33.38 183.61,-264.92 286.58,-377.7 109.87,-120.34 190.6,-70.96 188.25,14.24 -3.32,121.1 -224.59,425.76 -311.12,520.77 -76.53,84 -356.04,390.57 -447.16,384.2 -86.04,-112.52 34.49,-482.88 76.97,-590.09 38.02,-95.89 91.08,-159.52 147.18,-218.1 36.03,-37.62 129.19,-135.24 194.88,-124.46 39.35,6.45 13.44,-0.04 26.04,13.75 41.29,57.25 -195.02,321.95 -161.64,377.39zm1804.19 180.16c-200.72,-146.56 -342.24,-224.82 -545.22,-368.28 -46.2,-32.72 -173.35,-152.84 -62.52,-212.17 72.46,-12.69 176.18,64.73 223.89,96.47 62.34,41.47 145.01,120.3 174.55,129.85 -26.35,-79.89 -125.69,-167.92 -186.57,-218.45 -187.9,-155.93 -72.11,-218.36 -1.77,-171.81 51.37,34 102.48,83.52 145.41,119.86 48.77,41.29 94.04,89.71 134.14,139.8 116.54,145.54 197.01,225.43 237.99,437.61 24.94,129.1 -16.58,122.55 -119.9,47.13zm-767.69 -1028.58c120.65,-20.29 223.22,55.35 229.33,166.81 5.84,106.99 -110.53,181.62 -209.21,195.55 -284.24,40.1 -357.63,-305.59 -20.12,-362.36zm-665.78 -53.67c255.76,-67.64 463.34,293.79 185.33,382.39 -132.94,42.35 -253.64,-25.11 -298.87,-110.13 -45.45,-85.51 -36.21,-232.64 113.54,-272.25zm1866.13 546.41c-67.6,-44.92 -597.78,-137.23 -743.55,-295.02 -67.02,-72.55 -64.77,-172.47 37.76,-208.9 145.01,-51.55 469.35,-5.79 620.29,26.39 326.55,69.59 1139.24,561.35 1018.1,679.13 -87.36,84.97 -830.25,0.62 -949.75,-16.76 -102.04,-14.81 -479.12,-92 -460.91,-223.18 94.75,-16.8 151.16,5.04 241.13,22.24 39.48,7.56 78.34,12.29 119.15,17.24 20.47,2.52 44.43,6.06 65.04,7.34 37.23,2.34 29.09,8.97 52.74,-8.49zm-3474.99 627.54c-73.48,-207.04 396.36,-988.17 732.72,-1112.67 109.69,-40.59 411.88,16.49 197.05,169.64 -36.03,25.69 -69.19,49.61 -105.84,76.8 -38.51,28.56 -66.85,53.98 -102.04,80.82l-68.84 67.73c-22.33,26.48 -7.65,1.19 -20.2,31.92 69.19,-18.66 306.08,-252.4 586.56,-287.6 155.93,-19.59 250.02,92.27 143.73,189.62 -146.56,134.27 -761.32,321.68 -1112.76,613.44 -36.96,30.68 -186.62,173.44 -250.37,170.3zm806.42 -1330.95c46.47,-20.47 143.69,-2.65 203.06,-2.96 241.09,-1.19 172.38,-77.02 290.07,89 52.92,74.72 81.44,60.53 74.54,127.86 -202.71,85.46 -617.41,-78.92 -567.68,-213.9zm1929.66 -89.66c0,327.43 -343.61,273.85 -338,9.02 6.45,-304.84 338,-313.59 338,-9.02zm-735.5 -320.84c178,-36.03 311.16,90.85 325.93,247.45 16.62,176.93 -102,310.28 -245.06,340.56 -379.69,80.33 -475.58,-508.17 -80.86,-588.01zm-528.73 28.96c214.29,-54.78 305.63,321.77 77.64,411.57 -127.55,50.22 -201.12,-59.29 -218.49,-157.17 -23.61,-133.03 34.35,-227.2 140.86,-254.39zm833.87 -397.29c129.45,-33.42 254,45.14 295.29,120.79 67.33,123.35 15.87,234.19 -106.82,262.22 -289.01,66.14 -459.67,-313.02 -188.47,-383.01zm-523.29 -5.13c277.87,-77.59 352.99,242.41 105.22,320.45 -255.94,80.6 -387.96,-241.44 -105.22,-320.45zm-577.14 5.13c101.73,96.65 240.78,125.52 265.4,155.01 63.18,75.69 -151.38,340.34 -308.82,89.35 -20.74,-33.16 -152.53,-256.21 -96.78,-304.26 38.15,-32.94 125.65,46.07 140.19,59.91zm2360.68 436.9c-58.05,7.65 -457.81,185.78 -672.77,148.99 -51.59,-8.84 -105.14,-53.67 -76.13,-116.94 41.96,-91.65 318.15,-183.3 413.25,-207.75 241.7,-62.12 426.55,-79.89 640.49,-190.95 256.16,-132.94 524.39,-312.4 355.42,26.35 -186.04,373.01 -500.08,651.28 -924.95,737.1 -517.59,104.52 -578.07,-104.87 -325.35,-169.2 104.52,-26.62 547.34,-140.19 590.05,-227.6zm-2412.58 224.86c-111.72,94.83 -436.32,-74.36 -449.9,123.84 -270.93,-49.3 -543.32,-294.1 -691.91,-496.19 -33.82,-46.02 -60.08,-93.2 -87.1,-141.3 -32.23,-57.43 -144.22,-257.22 -146.12,-316.64 73.26,-14.41 249.31,149.48 534.65,220.88 189.58,47.44 465.77,75.38 673.74,76 25.82,28.69 58.89,123.04 116.19,202.4 26.62,36.87 45.41,56.02 75.16,89.17 203.95,227.25 -290.2,74.28 -361.7,50.93l-354.31 -142.41c26.48,43.06 101.86,81.04 150.19,109.29 105.31,61.68 240.95,111.32 360.1,151.51 42.13,14.24 167.65,35.55 181,72.51zm2102.44 -935.3c118.35,-38.02 -96.91,401.88 -274.02,514.4 -44.87,28.47 -153.55,82.54 -208.1,36.25 -20.87,-17.68 -41.51,-63.89 -53.98,-92.58 -22.19,-50.98 -12.69,-76.57 18.22,-105.62 42.8,-40.28 474.52,-338.53 517.89,-352.45zm-515.86 -288.92c-28.56,18.39 -26.97,21.22 -48.72,65.26 -270.57,547.65 -593.72,442.07 -465.28,192.23 50.71,-98.64 113.84,-160 174.06,-237.24 179.68,-230.39 346.75,-485.53 520.77,-721.49 62.12,-84.18 124.77,-205.41 206.16,-200.01 44.48,70.78 -36.7,505.56 -56.33,613.97 -33.2,183.26 -86.35,389.9 -157.61,546.59 -167.47,368.19 -365.9,285.43 -382.39,229.59 -21.27,-72.2 188.43,-307.4 209.34,-488.89zm-1760.28 -490.35c-27.1,-119.77 -61.59,-239.98 -78.83,-359.35 -37.01,-256.83 110.75,-148.15 179.41,-61.41 123.44,155.89 167.83,223.14 301.39,356.39l224.95 213.67c145.59,126.4 452.2,455.64 416.34,669.14 -21.97,130.95 -154.83,165.35 -259.74,96.65 -64.06,-41.96 -164.11,-161.28 -212.53,-225.74 -72.82,-96.91 -136.08,-238.26 -169.02,-262.53 7.78,106.2 153.9,348.03 217.26,442.65 26.7,39.92 85.64,92.31 38.46,138.96 -83.47,82.59 -260.32,28.69 -328.27,-31.79 -62.16,-55.26 -117.65,-172.29 -156.86,-272.7 -90.01,-230.48 -115.61,-452.24 -172.56,-703.94zm146.92 897.67c-49.83,-17.55 -107.66,2.34 -134.27,32.5 -35.19,39.88 -32.81,88.95 -28.25,154.34 -173.62,-0.04 -300.46,-12.56 -471.78,-40.28 -385.26,-62.34 -458.21,-178.53 -677.28,-245.73 -315.54,-96.73 43.46,483.28 91.74,557.64l152 194.62c139.44,131.4 131.84,140.37 328.05,256.6 49.91,29.53 92.49,53.72 149.74,78.34l177.16 57.25c-25.2,21.93 -137.01,76.31 -275.75,196.21 -208.59,180.34 -474.83,615.2 -528.24,896.48 -36.56,192.59 40.76,277.96 203.59,185.03 105.09,-59.95 173.66,-141.74 265.31,-209.7 93.77,-69.46 541.95,-323.98 616.88,-323.23 -141.7,219.33 -302.76,1006.39 66.94,806.51 24.05,-13 34.62,-21.53 54.34,-37.36 29,-23.3 30.55,-30.42 53.27,-32.36 -11.32,209.17 -3.32,277.16 -5.26,464.22 -0.97,147.05 45.27,391.18 235.43,345.73 106.86,-25.55 200.94,-214.47 256.16,-328.49 155.93,-321.95 280.21,-419.21 397.59,-625.9 17.73,-31.21 31.52,-66.05 49.47,-92.49 73.04,113 69.41,142.23 177.38,270.62 179.45,213.5 481.07,493.36 717.78,633.73 363.82,215.8 367.09,-83.43 257.05,-347.95 -62.82,-151.07 -275.44,-546.37 -294.76,-612.77 42.66,20.34 295.86,200.19 295.86,-55.53 0,-104.65 -41.29,-226.54 -79.18,-300.59 32.05,-1.11 579.66,90.85 873.97,90.19 125.12,-0.27 312.18,18.04 408.47,-47.7 205.36,-140.24 -166.5,-401.13 -276.9,-475.89 -171.72,-116.19 -534.87,-333.97 -775.34,-375.62 45.23,-33.42 282.2,-61.45 572.27,-322.74 253.69,-228.49 616.04,-860.53 211.77,-774.94 -103.28,21.88 -217.03,98.15 -306.61,141.21 -112.47,54.11 -193.51,91.56 -318.19,129.54 -61.23,18.7 -313.02,81.92 -370.32,80.47 77.19,-113.98 182.77,-267.92 179.76,-455.38 -3.4,-208.24 -298.83,13.04 -392.69,72.29l96.47 -266.82c73.79,-253.51 152.13,-718.13 152.13,-974.51 0,-116.76 -85.86,-139.58 -175.34,-89.57 -127.59,71.36 -545.08,685.41 -661.76,844.71 -99.52,135.82 -156.16,220.39 -266.02,346.35 -93.33,-167.47 -60.53,-160 -202.67,-347.06 -162.34,-213.63 -450.69,-422.18 -621.61,-639.17l-191.08 -237.95c-105.31,-105.62 -296.39,-142.49 -313.95,68.4 -10.12,121.85 60.79,361.21 86.92,478.33 52.88,236.89 74.41,447.77 161.68,679.13 16.58,43.9 76.57,173.27 78.03,199.31z"/>
   <path class="fil2" d="M2797.27 106.59c1694.19,-141.7 3053.56,1153.26 3178.19,2688.51 137.59,1695.25 -1151.31,3055.42 -2686.83,3180.18 -1702.9,138.38 -3051.71,-1148.71 -3182.26,-2685.59 -38.46,-452.68 31.12,-898.2 176.32,-1280.37 69.37,-182.51 147.8,-343.92 242.77,-497.03 121.27,-195.55 322.48,-462.41 493.27,-612.2 64.28,-56.41 122.16,-110.35 196.48,-168.93 441.14,-347.95 980.79,-574.31 1582.07,-624.58zm-2797.27 2777.81l0 347.81c17.68,41.16 30.02,247.05 41.96,316.82 219.73,1284.21 1236.51,2292.81 2526.96,2496.32 68.44,10.83 289.32,22.11 328.62,38.73l288.44 0c45.05,-19.06 249.66,-26.57 320.98,-37.71 1306.45,-204.7 2331.01,-1226.69 2538.1,-2531.29 10.96,-69.1 22.33,-289.63 39.04,-329.11l0 -328.98c-1.24,-2.7 -2.21,-6.06 -2.87,-8.4l-40.9 -311.21c-215.75,-1284.08 -1224.62,-2278.4 -2491.28,-2495.43 -69.81,-11.94 -275.66,-24.27 -316.82,-41.96l-347.81 0c-131.62,48.63 -743.29,-29.67 -1601.74,560.78 -571.88,393.39 -1004.97,1031.1 -1182.7,1703.91 -26.17,99.17 -47.09,198.51 -63.62,302.27 -9.33,58.4 -26.53,290.87 -36.34,317.44z"/>
   <path class="fil2" d="M2391.05 1690.34c32.94,24.27 96.2,165.62 169.02,262.53 48.41,64.46 148.46,183.79 212.53,225.74 104.91,68.7 237.77,34.31 259.74,-96.65 35.86,-213.5 -270.75,-542.74 -416.34,-669.14l-224.95 -213.67c-133.56,-133.25 -177.95,-200.5 -301.39,-356.39 -68.66,-86.74 -216.42,-195.42 -179.41,61.41 17.24,119.37 51.73,239.58 78.83,359.35 56.94,251.7 82.54,473.46 172.56,703.94 39.22,100.4 94.7,217.43 156.86,272.7 67.95,60.48 244.8,114.38 328.27,31.79 47.17,-46.64 -11.76,-99.03 -38.46,-138.96 -63.36,-94.61 -209.47,-336.45 -217.26,-442.65z"/>
   <path class="fil2" d="M4484.38 3798.57c-23.65,17.46 -15.52,10.83 -52.74,8.49 -20.6,-1.28 -44.57,-4.82 -65.04,-7.34 -40.81,-4.95 -79.67,-9.68 -119.15,-17.24 -89.97,-17.2 -146.38,-39.04 -241.13,-22.24 -18.22,131.18 358.87,208.37 460.91,223.18 119.5,17.38 862.39,101.73 949.75,16.76 121.14,-117.78 -691.56,-609.55 -1018.1,-679.13 -150.94,-32.19 -475.27,-77.95 -620.29,-26.39 -102.53,36.43 -104.78,136.35 -37.76,208.9 145.77,157.79 675.95,250.1 743.55,295.02z"/>
   <path class="fil2" d="M4575.37 2753.23c-42.71,87.41 -485.53,200.99 -590.05,227.6 -252.71,64.33 -192.23,273.71 325.35,169.2 424.87,-85.81 738.91,-364.08 924.95,-737.1 168.98,-338.75 -99.26,-159.29 -355.42,-26.35 -213.94,111.06 -398.79,128.83 -640.49,190.95 -95.1,24.45 -371.29,116.1 -413.25,207.75 -29,63.27 24.54,108.1 76.13,116.94 214.96,36.78 614.72,-141.34 672.77,-148.99z"/>
   <path class="fil2" d="M1712.89 3101.93c13.57,-198.2 338.17,-29 449.9,-123.84 -13.35,-36.96 -138.87,-58.27 -181,-72.51 -119.15,-40.19 -254.79,-89.84 -360.1,-151.51 -48.32,-28.25 -123.7,-66.23 -150.19,-109.29l354.31 142.41c71.49,23.34 565.64,176.32 361.7,-50.93 -29.75,-33.16 -48.54,-52.3 -75.16,-89.17 -57.3,-79.36 -90.37,-173.71 -116.19,-202.4 -207.97,-0.62 -484.16,-28.56 -673.74,-76 -285.34,-71.4 -461.39,-235.29 -534.65,-220.88 1.9,59.42 113.89,259.21 146.12,316.64 27.01,48.1 53.27,95.28 87.1,141.3 148.6,202.09 420.98,446.89 691.91,496.19z"/>
   <path class="fil2" d="M1009.39 4426.11c63.75,3.14 213.41,-139.62 250.37,-170.3 351.44,-291.75 966.2,-479.17 1112.76,-613.44 106.28,-97.35 12.2,-209.21 -143.73,-189.62 -280.48,35.19 -517.36,268.94 -586.56,287.6 12.56,-30.73 -2.12,-5.44 20.2,-31.92l68.84 -67.73c35.19,-26.84 63.53,-52.26 102.04,-80.82 36.65,-27.19 69.81,-51.11 105.84,-76.8 214.82,-153.15 -87.36,-210.23 -197.05,-169.64 -336.36,124.5 -806.2,905.63 -732.72,1112.67z"/>
   <path class="fil2" d="M3749.36 1753.87c-20.91,181.49 -230.61,416.69 -209.34,488.89 16.49,55.84 214.91,138.6 382.39,-229.59 71.27,-156.69 124.41,-363.33 157.61,-546.59 19.63,-108.41 100.8,-543.18 56.33,-613.97 -81.39,-5.39 -144.04,115.83 -206.16,200.01 -174.02,235.96 -341.09,491.1 -520.77,721.49 -60.22,77.24 -123.35,138.6 -174.06,237.24 -128.43,249.84 194.71,355.42 465.28,-192.23 21.75,-44.03 20.16,-46.86 48.72,-65.26z"/>
   <path class="fil2" d="M3634.59 4209.25c-79.98,104.65 171.63,393.84 171.59,491.37 -281.41,-295.2 -372,-875.26 -570.95,-478.55 -47.93,95.59 -60.92,146.34 -9.11,243.47 72.68,136.22 186.35,262.09 291.22,366.74 29.71,29.67 54.25,51.33 83.78,80.86 139.62,139.66 286,248.2 459.36,362.62 64.5,42.58 186.79,129.1 173.53,-29.4 -13.88,-166.24 -216.5,-552.07 -294.01,-690.5 -39.3,-70.12 -177.2,-398.79 -305.41,-346.62z"/>
   <path class="fil2" d="M2265.53 4832.55c0,116.67 -23.34,619.8 122.86,571.48 61.45,-20.34 174.11,-256.91 217.21,-331.94 146.61,-255.06 179.45,-286.09 325.44,-496.58 34.26,-49.38 80.07,-111.94 80.07,-190.55 0,-76.71 -34.75,-214.34 -86.92,-238.96 -52.3,-24.63 -83.87,16.23 -105.05,43.5 -61.28,78.92 -145.85,232.91 -183.92,327.61l-67.38 179.01c-1.41,4.55 -8.93,30.82 -10.65,34.84l-21.09 33.03c1.99,-116.5 64.81,-301.04 107.57,-394.01 35.33,-76.8 162.65,-272.79 146.61,-343.61 -56.72,-7.21 -67.47,19.85 -91.87,60.53 -82.01,136.75 -156.11,218.89 -253.16,331.45 -130.6,151.42 -156.42,131.09 -169.73,249.93 -6.15,54.73 -9.99,107.92 -9.99,164.29z"/>
   <path class="fil2" d="M2247.54 4154.25c-33.38,-55.44 202.93,-320.14 161.64,-377.39 -12.6,-13.79 13.31,-7.29 -26.04,-13.75 -65.7,-10.79 -158.85,86.83 -194.88,124.46 -56.1,58.58 -109.16,122.2 -147.18,218.1 -42.49,107.21 -163.01,477.57 -76.97,590.09 91.12,6.37 370.63,-300.2 447.16,-384.2 86.52,-95.01 307.8,-399.67 311.12,-520.77 2.34,-85.2 -78.39,-134.58 -188.25,-14.24 -102.97,112.78 -245.77,344.32 -286.58,377.7z"/>
   <path class="fil2" d="M3009.97 2684.66c-394.72,79.85 -298.83,668.35 80.86,588.01 143.07,-30.28 261.69,-163.63 245.06,-340.56 -14.77,-156.6 -147.93,-283.48 -325.93,-247.45z"/>
   <path class="fil2" d="M3842.43 3980.28c-29.53,-9.55 -112.21,-88.38 -174.55,-129.85 -47.7,-31.74 -151.42,-109.16 -223.89,-96.47 -110.84,59.33 16.31,179.45 62.52,212.17 202.98,143.47 344.5,221.72 545.22,368.28 103.32,75.42 144.84,81.97 119.9,-47.13 -40.98,-212.17 -121.45,-292.06 -237.99,-437.61 -40.1,-50.09 -85.37,-98.5 -134.14,-139.8 -42.93,-36.34 -94.04,-85.86 -145.41,-119.86 -70.34,-46.55 -186.13,15.87 1.77,171.81 60.88,50.53 160.22,138.56 186.57,218.45z"/>
   <path class="fil2" d="M2906.74 3715.76c-204.52,66.36 63.58,382.47 140.15,463.2 112.74,118.88 97.57,-15.83 228.04,-191.57 40.81,-55 82.9,-108.85 19.9,-174.95 -54.51,-57.17 -282.6,-130.95 -388.09,-96.69z"/>
   <path class="fil2" d="M4265.22 2042.8c-43.37,13.93 -475.1,312.18 -517.89,352.45 -30.9,29.05 -40.41,54.65 -18.22,105.62 12.47,28.69 33.11,74.89 53.98,92.58 54.56,46.29 163.23,-7.78 208.1,-36.25 177.11,-112.52 392.38,-552.42 274.02,-514.4z"/>
   <path class="fil2" d="M2618.25 3252.16c-149.74,39.61 -158.98,186.75 -113.54,272.25 45.23,85.02 165.93,152.49 298.87,110.13 278,-88.6 70.43,-450.03 -185.33,-382.39z"/>
   <path class="fil2" d="M3315.12 2316.33c-271.19,69.99 -100.54,449.15 188.47,383.01 122.69,-28.03 174.15,-138.87 106.82,-262.22 -41.29,-75.65 -165.84,-154.21 -295.29,-120.79z"/>
   <path class="fil2" d="M3284.04 3305.83c-337.51,56.77 -264.12,402.46 20.12,362.36 98.68,-13.93 215.05,-88.56 209.21,-195.55 -6.1,-111.46 -108.67,-187.1 -229.33,-166.81z"/>
   <path class="fil2" d="M3745.47 3005.5c0,-304.57 -331.54,-295.82 -338,9.02 -5.61,264.83 338,318.41 338,-9.02z"/>
   <path class="fil2" d="M2481.24 2713.62c-106.51,27.19 -164.47,121.36 -140.86,254.39 17.38,97.88 90.94,207.4 218.49,157.17 228,-89.79 136.66,-466.34 -77.64,-411.57z"/>
   <path class="fil2" d="M2791.83 2311.21c-282.73,79.01 -150.72,401.04 105.22,320.45 247.76,-78.03 172.65,-398.04 -105.22,-320.45z"/>
   <path class="fil2" d="M1815.81 3095.17c-49.74,134.98 364.97,299.36 567.68,213.9 6.9,-67.33 -21.62,-53.14 -74.54,-127.86 -117.69,-166.01 -48.99,-90.19 -290.07,-89 -59.38,0.31 -156.6,-17.51 -203.06,2.96z"/>
   <path class="fil2" d="M2074.5 2256.43c-55.75,48.06 76.04,271.11 96.78,304.26 157.44,250.99 372,-13.66 308.82,-89.35 -24.63,-29.49 -163.67,-58.36 -265.4,-155.01 -14.55,-13.84 -102.04,-92.84 -140.19,-59.91z"/>
  </g>
 </g>
</svg>
