<svg xmlns="http://www.w3.org/2000/svg" viewBox="0 0 32 32"><defs><style>.cls-1{fill:#231f20;}</style></defs><g id="scan_barcode" data-name="scan barcode"><path class="cls-1" d="M3,11.8a1,1,0,0,0,1-1V7H8A1,1,0,0,0,8,5H3.88A1.89,1.89,0,0,0,2,6.9v3.9A1,1,0,0,0,3,11.8Z"/><path class="cls-1" d="M28.12,5H24a1,1,0,0,0,0,2h4v4a1,1,0,0,0,2,0V6.9A1.89,1.89,0,0,0,28.12,5Z"/><path class="cls-1" d="M8,25H4V20.93a1,1,0,0,0-2,0V25.1A1.89,1.89,0,0,0,3.88,27H8a1,1,0,0,0,0-2Z"/><path class="cls-1" d="M29,20a1,1,0,0,0-1,1v4H24a1,1,0,0,0,0,2h4.12A1.89,1.89,0,0,0,30,25.1V21A1,1,0,0,0,29,20Z"/><path class="cls-1" d="M10,8A1,1,0,0,0,9,9V19a1,1,0,0,0,2,0V9A1,1,0,0,0,10,8Z"/><path class="cls-1" d="M10.71,22.29a1,1,0,0,0-1.42,0,1.15,1.15,0,0,0-.21.33.94.94,0,0,0,0,.76.9.9,0,0,0,.54.54.94.94,0,0,0,.76,0,1.15,1.15,0,0,0,.33-.21,1,1,0,0,0,.21-1.09A1,1,0,0,0,10.71,22.29Z"/><path class="cls-1" d="M13,8a1,1,0,0,0-1,1V19a1,1,0,0,0,2,0V9A1,1,0,0,0,13,8Z"/><path class="cls-1" d="M16,8a1,1,0,0,0-1,1V23a1,1,0,0,0,2,0V9A1,1,0,0,0,16,8Z"/><path class="cls-1" d="M19,8a1,1,0,0,0-1,1V19a1,1,0,0,0,2,0V9A1,1,0,0,0,19,8Z"/><path class="cls-1" d="M23,9a1,1,0,0,0-2,0V23a1,1,0,0,0,2,0Z"/><path class="cls-1" d="M19.71,22.29a1.15,1.15,0,0,0-.33-.21,1,1,0,0,0-1.09.21,1,1,0,0,0-.21.33,1,1,0,0,0,.21,1.09,1.15,1.15,0,0,0,.33.21,1,1,0,0,0,1.09-.21,1.15,1.15,0,0,0,.21-.33.94.94,0,0,0,0-.76A1.15,1.15,0,0,0,19.71,22.29Z"/><path class="cls-1" d="M13.71,22.29a1,1,0,0,0-1.09-.21,1.15,1.15,0,0,0-.33.21,1,1,0,0,0-.21.33.94.94,0,0,0,0,.76.9.9,0,0,0,.54.54.94.94,0,0,0,.76,0,1.15,1.15,0,0,0,.33-.21A1,1,0,0,0,14,23a.84.84,0,0,0-.08-.38A1.15,1.15,0,0,0,13.71,22.29Z"/><path class="cls-1" d="M26,23V9a1,1,0,0,0-2,0V23a1,1,0,0,0,2,0Z"/><path class="cls-1" d="M6,9V23a1,1,0,0,0,2,0V9A1,1,0,0,0,6,9Z"/></g></svg>