<?xml version="1.0" encoding="UTF-8"?>
<!DOCTYPE svg PUBLIC "-//W3C//DTD SVG 1.1//EN" "http://www.w3.org/Graphics/SVG/1.1/DTD/svg11.dtd">
<!-- Creator: CorelDRAW 2021 (64-Bit) -->
<svg xmlns="http://www.w3.org/2000/svg" xml:space="preserve" width="45mm" height="10mm" version="1.1" style="shape-rendering:geometricPrecision; text-rendering:geometricPrecision; image-rendering:optimizeQuality; fill-rule:evenodd; clip-rule:evenodd"
viewBox="0 0 24034.47 5340.99"
 xmlns:xlink="http://www.w3.org/1999/xlink"
 xmlns:xodm="http://www.corel.com/coreldraw/odm/2003">
 <defs>
  <style type="text/css">
   <![CDATA[
    .fil1 {fill:#E31E24}
    .fil0 {fill:#E31E24;fill-rule:nonzero}
   ]]>
  </style>
 </defs>
 <g id="Ebene_x0020_1">
  <metadata id="CorelCorpID_0Corel-Layer"/>
  <g id="_2176884721056">
   <path class="fil0" d="M1315.86 1017.14l0 291.89c-88.18,14.79 -153.71,56.77 -197.4,125.83 -42.99,69.91 -64.84,168.56 -64.84,297.65l0 1990 0 103.62c0,37.01 6.78,75.68 21.1,116.81 14.37,41.13 32.42,75.63 55.01,105.22 24.14,32.1 49.72,54.32 76.11,68.26 27.13,13.99 64.04,23.02 110.02,27.99l0 293.54c-285.58,0 -534.21,-81.4 -745.18,-243.39 -185.33,-143.09 -325.48,-334.67 -419.64,-576.45 -94.16,-241.73 -141.64,-527.9 -141.64,-858.51 0,-242.59 30.87,-468.73 91.92,-678.41 60.99,-209.69 149.92,-391.39 265.98,-545.16 118.25,-156.28 259.14,-281.26 423.43,-375.79 164.18,-94.59 322.44,-142.28 474.6,-142.28l50.53 -0.8zm171.77 294.34l0 -291.89c72.32,12.34 130.32,26.28 175.56,41.13 44.44,13.94 125.83,44.38 243.34,91.28 75.31,28.73 125.03,43.58 149.92,43.58 42.94,0 75.36,-20.56 97.21,-62.54l28.63 -57.52c18.05,-38.67 51.27,-57.58 99.45,-57.58 39.95,0 70.07,13.14 91.92,38.67 21.1,25.48 31.67,63.29 31.67,112.64l0 1004.85c0,63.34 -13.57,109.38 -39.95,138.17 -26.38,28.79 -56.51,42.73 -90.42,42.73 -35.41,0 -63.29,-12.34 -84.39,-36.96 -21.84,-25.53 -39.2,-65.8 -51.97,-121.72 -30.92,-127.49 -61.05,-226.94 -90.42,-299.31 -63.29,-152.16 -135.61,-276.34 -216.26,-370.88 -54.21,-64.15 -109.22,-113.5 -163.49,-148 -54.21,-34.56 -114.51,-56.77 -180.79,-66.66zm9.03 3126.46l0 -293.54c115.31,-9.88 235.8,-57.58 362.44,-142.28 67.78,-46.84 128.77,-109.33 181.54,-187.47 52.77,-77.28 92.67,-163.65 119.8,-256.58 14.31,-51.81 31.67,-87.97 51.22,-109.33 20.35,-22.22 46.73,-32.9 79.15,-32.9 35.36,0 64.79,14.79 88.13,43.58 23.34,28.79 35.41,64.95 35.41,108.53 0,72.37 -25.64,159.54 -76.11,262.3 -51.22,102.81 -116.01,198.2 -195.85,284.57 -97.26,106.07 -197.4,185.01 -299.9,236.82 -102.49,50.95 -217.75,79.74 -345.83,86.31z"/>
   <path id="_1" class="fil0" d="M3627.34 1082.09l889.81 0 613.25 2832.86c11.32,50.15 24.94,93.73 39.2,132.4 13.57,30.44 42.99,55.92 88.13,74.83 38.46,18.11 64.84,35.36 79.9,53.46 14.31,17.25 21.84,41.13 21.84,72.37 0,83.05 -57.26,124.98 -171.77,124.98l-1101.53 0c-43.69,0 -79.85,-11.54 -106.23,-35.36 -26.38,-23.02 -39.95,-54.26 -39.95,-92.93 0,-32.05 6.04,-55.92 17.36,-72.37 12.07,-15.6 38.46,-36.16 79.85,-60.03 29.38,-16.45 49.78,-33.7 61.8,-53.41 11.32,-18.96 17.3,-43.58 17.3,-72.37 0,-27.13 -2.24,-51.81 -6.78,-72.37l-69.27 -350.32 -615.6 0 59.55 -286.17 494.26 0 -406.08 -1958.76 54.96 -236.82zm-152.16 614.27l112.27 499.17 -389.52 1555.78c-11.32,45.24 -17.36,87.17 -17.36,125.83 0,101.16 43.69,173.53 130.32,216.26l76.91 38.67c48.98,23.82 73.06,64.15 73.06,120.87 0,79.79 -54.26,120.07 -161.99,120.07l-561.28 0c-54.26,0 -97.21,-12.34 -128.88,-37.01 -31.67,-25.48 -47.43,-59.18 -47.43,-102.76 0,-46.89 32.37,-84.71 97.15,-115.95 60.3,-28.79 104.74,-54.26 133.36,-78.14 28.63,-23.02 56.51,-55.07 82.89,-95.39 41.45,-65.8 75.36,-152.97 101.69,-262.3l498.8 -1985.09z"/>
   <path id="_2" class="fil0" d="M6789.47 1082.09l1174.59 2228.48 0 1062.43 -602.73 0 -1500.07 -2820.52c-32.37,-61.69 -58.75,-103.62 -79.1,-128.29 -21.1,-23.87 -47.48,-41.13 -79.9,-52.66l-83.64 -33.7c-22.59,-8.23 -39.9,-23.02 -53.46,-43.58 -12.82,-20.56 -19.6,-44.38 -19.6,-69.91 0,-27.13 6.78,-52.61 20.35,-75.63 12.82,-23.87 30.87,-40.27 52.72,-49.35 25.64,-11.48 93.47,-17.25 204.19,-17.25l966.67 0zm-922.98 848.63l235.11 424.29 0 1290.22c0,112.69 17.3,204.77 51.97,277.14 33.92,72.37 88.87,131.55 163.49,178.44l66.28 41.13c38.46,23.82 57.26,60.03 57.26,108.53 0,37.01 -13.57,67.4 -41.39,91.28 -24.14,20.56 -72.37,31.24 -145.44,31.24l-510.81 0c-134.86,0 -201.94,-41.93 -201.94,-124.98 0,-28.79 6.84,-51.81 21.1,-69.11 14.37,-16.4 44.49,-39.47 91.97,-68.2 141.59,-85.56 212.41,-240.13 212.41,-465.47l0 -1714.51zm2097.57 994.97l-235.06 -430.86 0 -667.73c0,-135.66 -18.05,-239.28 -54.26,-310.85 -35.41,-71.52 -98.7,-133.2 -189.82,-185.01 -30.98,-16.45 -52.02,-33.7 -64.09,-51.81 -11.27,-18.91 -17.3,-42.78 -17.3,-71.52 0,-43.58 12.82,-75.68 38.4,-95.39 25.64,-20.56 67.03,-30.44 123.59,-30.44l553.01 0c74.56,0 123.54,13.14 146.88,38.62 24.89,25.53 37.71,56.77 37.71,92.13 0,33.7 -6.78,59.18 -21.1,75.63 -13.57,17.3 -47.48,40.32 -100.25,69.11 -77.6,43.58 -136.3,110.99 -175.51,200.61 -27.88,66.6 -42.19,156.28 -42.19,268.92l0 1098.59z"/>
   <path id="_3" class="fil0" d="M12425.07 1082.09l0 3290.91 -983.22 0 -57.26 0c-53.46,0 -94.16,-10.68 -123.54,-32.9 -28.63,-21.36 -42.99,-52.61 -42.99,-92.08 0,-65.8 29.43,-109.38 88.93,-130.75 48.23,-17.3 76.86,-27.99 85.14,-32.1 8.28,-4.11 16.56,-13.14 25.64,-27.93 17.3,-25.48 26.38,-66.6 26.38,-122.52l0 -2412.69c0,-55.92 -9.08,-97.05 -26.38,-123.38 -9.08,-13.94 -17.36,-23.82 -25.64,-27.93 -8.28,-3.31 -36.91,-14.79 -85.14,-32.05 -59.5,-21.42 -88.93,-65 -88.93,-130.75 0,-40.32 14.37,-71.57 42.99,-92.93 29.38,-22.22 70.07,-32.9 123.54,-32.9l57.26 0 983.22 0zm194.36 0l890.61 0 0 856c0,49.35 -9.08,84.71 -26.38,106.93 -18.11,22.22 -45.93,33.7 -84.39,33.7 -32.42,0 -55.76,-7.37 -70.82,-21.36 -14.31,-14.79 -28.63,-44.38 -41.45,-89.62 -56.51,-186.67 -138.6,-328.95 -246.38,-426.8 -108.48,-97.85 -248.62,-157.08 -421.19,-175.99l0 -282.86zm-8.97 1756.44l0 -278.75c85.08,-45.24 148.43,-94.54 189.07,-147.2 41.45,-52.61 71.62,-123.32 90.42,-212.14 12.07,-60.83 27.13,-102.81 46.68,-126.63 18.85,-23.02 45.99,-34.56 81.4,-34.56 46.73,0 79.15,19.76 97.21,60.03 9.77,21.36 15.06,68.26 15.06,142.28l0 917.69c0,76.48 -7.53,129.09 -23.34,158.73 -15.06,28.73 -43.69,43.58 -84.44,43.58 -33.86,0 -60.25,-11.54 -79.05,-33.76 -19.65,-23.02 -34.72,-60.83 -46.73,-113.44 -24.89,-111.84 -60.3,-197.4 -106.98,-256.58 -45.93,-60.03 -106.23,-99.5 -179.3,-119.26zm13.57 1534.47l0 -260.69c95.66,-16.45 174.76,-38.62 237.3,-67.4 62.49,-29.59 125.03,-73.17 188.38,-133.2 63.29,-59.23 113.71,-120.92 151.42,-185.07 36.91,-63.29 73.06,-147.14 106.98,-251.61 15.81,-51.81 33.17,-87.17 50.47,-105.27 17.3,-18.91 42.19,-27.93 73.12,-27.93 40.64,0 69.27,13.14 85.88,39.47 15.81,27.13 24.09,73.17 24.09,138.97l0 852.74 -917.64 0z"/>
   <path id="_4" class="fil0" d="M15077.89 4372.99l-983.22 0 -57.26 0c-53.46,0 -94.22,-10.68 -123.59,-32.9 -28.63,-21.36 -42.94,-52.61 -42.94,-92.08 0,-65.8 29.43,-109.38 88.93,-130.75 48.18,-17.3 76.8,-27.99 85.14,-32.1 8.28,-4.11 16.56,-13.14 25.58,-27.93 17.36,-25.48 26.38,-66.6 26.38,-122.52l0 -2412.69c0,-55.92 -9.03,-97.05 -26.38,-123.38 -9.03,-13.94 -17.3,-23.82 -25.58,-27.93 -8.33,-3.31 -36.96,-14.79 -85.14,-32.05 -59.5,-21.42 -88.93,-65 -88.93,-130.75 0,-40.32 14.31,-71.57 42.94,-92.93 29.38,-22.22 70.13,-32.9 123.59,-32.9l57.26 0 985.47 0 75.36 0c65.53,0 112.27,9.88 140.15,28.79 38.4,26.28 58,60.03 58,101.96 0,70.71 -35.46,115.1 -106.98,133.2 -57.26,13.99 -91.97,23.87 -101.75,28.79 -10.52,4.91 -21.84,13.99 -33.92,28.79 -21.84,28.79 -33.11,74.03 -33.11,135.66l0 2833.72zm176.31 0l0 -268.92c72.32,-14.79 129.57,-31.24 171.77,-48.5 41.45,-17.25 82.09,-43.58 120.55,-77.28 61.8,-52.66 118.3,-125.83 170.27,-218.77 51.22,-92.88 93.41,-195.69 125.83,-309.99 24.09,-87.97 45.99,-146.4 65.53,-174.33 19.6,-27.99 48.98,-41.93 87.43,-41.93 41.45,0 71.52,18.05 90.37,55.07 9.03,18.11 13.57,53.46 13.57,106.07l0 978.58 -845.32 0z"/>
   <path id="_5" class="fil0" d="M17485.82 4372.99l-983.17 0 -57.26 0c-53.52,0 -94.22,-10.68 -123.59,-32.9 -28.63,-21.36 -42.94,-52.61 -42.94,-92.08 0,-65.8 29.38,-109.38 88.87,-130.75 48.23,-17.3 76.86,-27.99 85.19,-32.1 8.28,-4.11 16.5,-13.14 25.58,-27.93 17.3,-25.48 26.38,-66.6 26.38,-122.52l0 -2412.69c0,-55.92 -9.08,-97.05 -26.38,-123.38 -9.08,-13.94 -17.3,-23.82 -25.58,-27.93 -8.33,-3.31 -36.96,-14.79 -85.19,-32.05 -59.5,-21.42 -88.87,-65 -88.87,-130.75 0,-40.32 14.31,-71.57 42.94,-92.93 29.38,-22.22 70.07,-32.9 123.59,-32.9l57.26 0 985.47 0 75.36 0c65.48,0 112.21,9.88 140.15,28.79 38.4,26.28 57.95,60.03 57.95,101.96 0,70.71 -35.41,115.1 -106.98,133.2 -57.26,13.99 -91.92,23.87 -101.69,28.79 -10.52,4.91 -21.84,13.99 -33.92,28.79 -21.84,28.79 -33.17,74.03 -33.17,135.66l0 2833.72zm176.36 0l0 -268.92c72.32,-14.79 129.57,-31.24 171.77,-48.5 41.45,-17.25 82.09,-43.58 120.55,-77.28 61.74,-52.66 118.3,-125.83 170.27,-218.77 51.22,-92.88 93.41,-195.69 125.78,-309.99 24.14,-87.97 45.99,-146.4 65.59,-174.33 19.55,-27.99 48.98,-41.93 87.38,-41.93 41.45,0 71.57,18.05 90.42,55.07 9.03,18.11 13.51,53.46 13.51,106.07l0 978.58 -845.27 0z"/>
   <path id="_6" class="fil0" d="M19893.81 1082.09l0 3290.91 -983.22 0 -57.26 0c-53.46,0 -94.16,-10.68 -123.54,-32.9 -28.63,-21.36 -42.99,-52.61 -42.99,-92.08 0,-65.8 29.43,-109.38 88.93,-130.75 48.23,-17.3 76.86,-27.99 85.14,-32.1 8.28,-4.11 16.56,-13.14 25.64,-27.93 17.3,-25.48 26.33,-66.6 26.33,-122.52l0 -2412.69c0,-55.92 -9.03,-97.05 -26.33,-123.38 -9.08,-13.94 -17.36,-23.82 -25.64,-27.93 -8.28,-3.31 -36.91,-14.79 -85.14,-32.05 -59.5,-21.42 -88.93,-65 -88.93,-130.75 0,-40.32 14.37,-71.57 42.99,-92.93 29.38,-22.22 70.07,-32.9 123.54,-32.9l57.26 0 983.22 0zm194.36 0l890.61 0 0 856c0,49.35 -9.08,84.71 -26.38,106.93 -18.11,22.22 -45.93,33.7 -84.39,33.7 -32.42,0 -55.76,-7.37 -70.82,-21.36 -14.31,-14.79 -28.63,-44.38 -41.45,-89.62 -56.51,-186.67 -138.6,-328.95 -246.38,-426.8 -108.48,-97.85 -248.62,-157.08 -421.19,-175.99l0 -282.86zm-8.97 1756.44l0 -278.75c85.08,-45.24 148.43,-94.54 189.07,-147.2 41.45,-52.61 71.57,-123.32 90.42,-212.14 12.07,-60.83 27.13,-102.81 46.68,-126.63 18.85,-23.02 45.99,-34.56 81.4,-34.56 46.73,0 79.15,19.76 97.21,60.03 9.77,21.36 15.06,68.26 15.06,142.28l0 917.69c0,76.48 -7.53,129.09 -23.34,158.73 -15.06,28.73 -43.69,43.58 -84.44,43.58 -33.86,0 -60.25,-11.54 -79.05,-33.76 -19.65,-23.02 -34.72,-60.83 -46.73,-113.44 -24.89,-111.84 -60.3,-197.4 -106.98,-256.58 -45.99,-60.03 -106.23,-99.5 -179.3,-119.26zm13.57 1534.47l0 -260.69c95.66,-16.45 174.76,-38.62 237.3,-67.4 62.49,-29.59 125.03,-73.17 188.38,-133.2 63.24,-59.23 113.71,-120.92 151.42,-185.07 36.91,-63.29 73.06,-147.14 106.98,-251.61 15.81,-51.81 33.17,-87.17 50.47,-105.27 17.3,-18.91 42.19,-27.93 73.12,-27.93 40.64,0 69.27,13.14 85.88,39.47 15.81,27.13 24.09,73.17 24.09,138.97l0 852.74 -917.64 0z"/>
   <path id="_7" class="fil0" d="M22546.63 1082.09l0 3290.91 -983.22 0 -57.26 0c-53.52,0 -94.22,-10.68 -123.59,-32.9 -28.63,-21.36 -42.94,-52.61 -42.94,-92.08 0,-65.8 29.43,-109.38 88.93,-130.75 48.18,-17.3 76.8,-27.99 85.14,-32.1 8.28,-4.11 16.56,-13.14 25.58,-27.93 17.3,-25.48 26.38,-66.6 26.38,-122.52l0 -2412.69c0,-55.92 -9.08,-97.05 -26.38,-123.38 -9.03,-13.94 -17.3,-23.82 -25.58,-27.93 -8.33,-3.31 -36.96,-14.79 -85.14,-32.05 -59.5,-21.42 -88.93,-65 -88.93,-130.75 0,-40.32 14.31,-71.57 42.94,-92.93 29.38,-22.22 70.07,-32.9 123.59,-32.9l57.26 0 983.22 0zm442.98 2601.81l0 -1902.84c0,-117.61 -15.06,-210.54 -45.93,-279.6 -19.6,-45.24 -42.99,-78.14 -70.82,-98.7 -27.88,-21.36 -72.32,-38.62 -132.62,-53.41l0 -267.26c77.6,0 143.94,3.26 198.95,9.88 186.03,22.17 367.62,109.33 542.43,259.84 173.26,146.34 302.14,337.12 385.78,571.49 86.58,237.67 130.27,501.63 130.27,791.11 0,328.1 -54.96,619.18 -165.73,874.11 -109.97,254.07 -268.22,454.73 -473.91,601.13 -100.2,70.71 -192.86,119.21 -279.49,144.69 -85.88,25.53 -198.9,38.67 -338.3,38.67l0 -259.84c61.74,-18.11 104.74,-33.7 128.88,-48.55 24.84,-14.79 45.13,-36.96 63.24,-67.4 21.84,-35.36 36.91,-75.68 45.24,-119.26 8.28,-44.38 12.02,-109.33 12.02,-194.04z"/>
   <path id="_8" class="fil0" d="M9791.86 1017.14l0 291.89c-88.18,14.79 -153.71,56.77 -197.4,125.83 -42.94,69.91 -64.79,168.56 -64.79,297.65l0 1990 0 103.62c0,37.01 6.73,75.68 21.1,116.81 14.31,41.13 32.37,75.63 55.01,105.22 24.09,32.1 49.72,54.32 76.06,68.26 27.13,13.99 64.09,23.02 110.02,27.99l0 293.54c-285.53,0 -534.15,-81.4 -745.12,-243.39 -185.39,-143.09 -325.48,-334.67 -419.7,-576.45 -94.16,-241.73 -141.59,-527.9 -141.59,-858.51 0,-242.59 30.87,-468.73 91.87,-678.41 61.05,-209.69 149.98,-391.39 265.98,-545.16 118.3,-156.28 259.14,-281.26 423.43,-375.79 164.24,-94.59 322.44,-142.28 474.65,-142.28l50.47 -0.8zm171.77 294.34l0 -291.89c72.32,12.34 130.37,26.28 175.56,41.13 44.44,13.94 125.83,44.38 243.39,91.28 75.31,28.73 125.03,43.58 149.87,43.58 42.99,0 75.36,-20.56 97.26,-62.54l28.63 -57.52c18.05,-38.67 51.22,-57.58 99.45,-57.58 39.9,0 70.07,13.14 91.87,38.67 21.1,25.48 31.67,63.29 31.67,112.64l0 1004.85c0,63.34 -13.57,109.38 -39.95,138.17 -26.33,28.79 -56.51,42.73 -90.42,42.73 -35.36,0 -63.24,-12.34 -84.33,-36.96 -21.9,-25.53 -39.2,-65.8 -51.97,-121.72 -30.92,-127.49 -61.1,-226.94 -90.48,-299.31 -63.24,-152.16 -135.55,-276.34 -216.2,-370.88 -54.26,-64.15 -109.22,-113.5 -163.49,-148 -54.26,-34.56 -114.51,-56.77 -180.85,-66.66zm9.08 3126.46l0 -293.54c115.26,-9.88 235.8,-57.58 362.39,-142.28 67.78,-46.84 128.82,-109.33 181.54,-187.47 52.77,-77.28 92.72,-163.65 119.8,-256.58 14.37,-51.81 31.67,-87.97 51.27,-109.33 20.35,-22.22 46.73,-32.9 79.1,-32.9 35.36,0 64.79,14.79 88.13,43.58 23.34,28.79 35.46,64.95 35.46,108.53 0,72.37 -25.69,159.54 -76.11,262.3 -51.22,102.81 -116.06,198.2 -195.91,284.57 -97.21,106.07 -197.4,185.01 -299.84,236.82 -102.49,50.95 -217.81,79.74 -345.83,86.31z"/>
   <rect class="fil1" x="0.45" y="-0.02" width="24034.04" height="593.3"/>
   <rect class="fil1" x="0.03" y="4747.67" width="24034.04" height="593.3"/>
  </g>
 </g>
</svg>
