<?xml version="1.0" encoding="utf-8"?>
<!-- Generator: Adobe Illustrator 19.2.1, SVG Export Plug-In . SVG Version: 6.00 Build 0)  -->
<svg version="1.1" xmlns="http://www.w3.org/2000/svg" xmlns:xlink="http://www.w3.org/1999/xlink" x="0px" y="0px"
	 viewBox="0 0 512 512" style="enable-background:new 0 0 512 512;" xml:space="preserve">
<style type="text/css">
	.st0{display:none;}
	.st1{fill:#75A897;}
	.st2{fill:#D5872A;}
	.st3{fill:#5082A9;}
	.st4{fill:#E09C6F;}
	.st5{fill:#E4C856;}
	.st6{fill:#87B7DD;}
	.st7{fill:#B9BDC2;}
	.st8{fill:#57646E;}
	.st9{fill:#CA6A46;}
	.st10{fill:#1F3049;}
	.st11{fill:#298063;}
	.st12{fill:#C93A3A;}
	.st13{fill:#DA8B80;}
	.st14{fill:#C9402E;}
	.st15{fill:#E29E6F;}
	.st16{fill:#A32929;}
	.st17{fill:#F5F5F5;}
	.st18{fill:#C9553E;}
	.st19{fill:#E09E9A;}
	.st20{fill:#FFFFFF;}
	.st21{fill:#E6A585;}
	.st22{fill:#4E3333;}
	.st23{fill:#2B5F87;}
	.st24{opacity:0.31;fill:#FFFFFF;}
	.st25{fill:#E6CA56;}
	.st26{fill:#4D917B;}
	.st27{fill:#B8B8B8;}
	.st28{fill:#8998A0;}
	.st29{fill:#394755;}
	.st30{fill:#F2D1B4;}
	.st31{fill:#ECE4C7;}
	.st32{fill:#F1CB58;}
	.st33{fill:#E1E1E1;}
</style>
<g id="GUIDELINES" class="st0">
</g>
<g id="Layer_9">
</g>
<g id="ICON">
	<ellipse class="st10" cx="256.4" cy="255.7" rx="256" ry="256"/>
</g>
<g id="Layer_8">
	<g>
		<rect x="120.4" y="380" class="st20" width="261" height="29"/>
		<g>
			<g>
				<rect x="138.5" y="212.5" class="st20" width="37.4" height="153"/>
				<g>
					<path class="st7" d="M148.7,348.6c0,2.3-1.4,4.1-3.1,4.1l0,0c-1.7,0-3.1-1.8-3.1-4.1v-120c0-2.3,1.4-4.1,3.1-4.1l0,0
						c1.7,0,3.1,1.8,3.1,4.1V348.6z"/>
					<path class="st7" d="M160.2,348.6c0,2.3-1.4,4.1-3.1,4.1l0,0c-1.7,0-3.1-1.8-3.1-4.1v-120c0-2.3,1.4-4.1,3.1-4.1l0,0
						c1.7,0,3.1,1.8,3.1,4.1V348.6z"/>
					<path class="st7" d="M171.8,348.6c0,2.3-1.4,4.1-3.1,4.1l0,0c-1.7,0-3.1-1.8-3.1-4.1v-120c0-2.3,1.4-4.1,3.1-4.1l0,0
						c1.7,0,3.1,1.8,3.1,4.1V348.6z"/>
				</g>
				<g>
					<path class="st20" d="M192.8,372.5c-1.9-7.8-8.9-13.5-17.3-13.5h-36.8c-8.4,0-15.3,5.8-17.3,13.5H192.8z"/>
					<path class="st20" d="M121.5,204c1.9,7.8,8.9,13.5,17.3,13.5h36.8c8.4,0,15.3-5.8,17.3-13.5H121.5z"/>
				</g>
			</g>
			<g>
				<g>
					<rect x="232.2" y="212.5" class="st20" width="37.4" height="153"/>
					<g>
						<path class="st7" d="M242.4,348.6c0,2.3-1.4,4.1-3.1,4.1l0,0c-1.7,0-3.1-1.8-3.1-4.1v-120c0-2.3,1.4-4.1,3.1-4.1l0,0
							c1.7,0,3.1,1.8,3.1,4.1V348.6z"/>
						<path class="st7" d="M254,348.6c0,2.3-1.4,4.1-3.1,4.1l0,0c-1.7,0-3.1-1.8-3.1-4.1v-120c0-2.3,1.4-4.1,3.1-4.1l0,0
							c1.7,0,3.1,1.8,3.1,4.1V348.6z"/>
						<path class="st7" d="M265.5,348.6c0,2.3-1.4,4.1-3.1,4.1l0,0c-1.7,0-3.1-1.8-3.1-4.1v-120c0-2.3,1.4-4.1,3.1-4.1l0,0
							c1.7,0,3.1,1.8,3.1,4.1V348.6z"/>
					</g>
					<g>
						<path class="st20" d="M286.6,372.5c-1.9-7.8-8.9-13.5-17.3-13.5h-36.8c-8.4,0-15.3,5.8-17.3,13.5H286.6z"/>
						<path class="st20" d="M215.2,204c1.9,7.8,8.9,13.5,17.3,13.5h36.8c8.4,0,15.3-5.8,17.3-13.5H215.2z"/>
					</g>
				</g>
			</g>
			<g>
				<g>
					<rect x="326" y="212.5" class="st20" width="37.4" height="153"/>
					<g>
						<path class="st7" d="M336.2,348.6c0,2.3-1.4,4.1-3.1,4.1l0,0c-1.7,0-3.1-1.8-3.1-4.1v-120c0-2.3,1.4-4.1,3.1-4.1l0,0
							c1.7,0,3.1,1.8,3.1,4.1V348.6z"/>
						<path class="st7" d="M347.7,348.6c0,2.3-1.4,4.1-3.1,4.1l0,0c-1.7,0-3.1-1.8-3.1-4.1v-120c0-2.3,1.4-4.1,3.1-4.1l0,0
							c1.7,0,3.1,1.8,3.1,4.1V348.6z"/>
						<path class="st7" d="M359.3,348.6c0,2.3-1.4,4.1-3.1,4.1l0,0c-1.7,0-3.1-1.8-3.1-4.1v-120c0-2.3,1.4-4.1,3.1-4.1l0,0
							c1.7,0,3.1,1.8,3.1,4.1V348.6z"/>
					</g>
					<g>
						<path class="st20" d="M380.3,372.5c-1.9-7.8-8.9-13.5-17.3-13.5h-36.8c-8.4,0-15.3,5.8-17.3,13.5H380.3z"/>
						<path class="st20" d="M309,204c1.9,7.8,8.9,13.5,17.3,13.5H363c8.4,0,15.3-5.8,17.3-13.5H309z"/>
					</g>
				</g>
			</g>
		</g>
		<g>
			<polygon class="st20" points="381.8,152 119.9,152 250.9,93 			"/>
			<polygon class="st7" points="161.8,143 250.9,102.9 339.9,143 			"/>
		</g>
		<g>
			<rect x="120.4" y="166.3" class="st20" width="261" height="25.1"/>
			<rect x="113.9" y="188.5" class="st20" width="274" height="7.8"/>
			<rect x="113.9" y="160.1" class="st20" width="274" height="8.8"/>
		</g>
		<rect x="126.9" y="171.7" class="st7" width="248" height="13"/>
	</g>
</g>
</svg>
