<?xml version="1.0" standalone="no"?>
<!DOCTYPE svg PUBLIC "-//W3C//DTD SVG 20010904//EN"
 "http://www.w3.org/TR/2001/REC-SVG-20010904/DTD/svg10.dtd">
<svg version="1.0" xmlns="http://www.w3.org/2000/svg"
 width="1046.000000pt" height="1280.000000pt" viewBox="0 0 1046.000000 1280.000000"
 preserveAspectRatio="xMidYMid meet">
<metadata>
Created by potrace 1.15, written by Peter Selinger 2001-2017
</metadata>
<g transform="translate(0.000000,1280.000000) scale(0.100000,-0.100000)"
fill="#795548" stroke="none">
<path d="M5750 12794 c-581 -73 -966 -478 -1124 -1183 -14 -62 -27 -115 -30
-118 -5 -5 -585 -78 -901 -113 -467 -52 -551 -65 -695 -106 -538 -154 -946
-511 -1210 -1059 -107 -222 -148 -355 -239 -765 -72 -323 -254 -1087 -881
-3690 -544 -2260 -628 -2636 -661 -2945 -13 -126 -6 -310 16 -403 67 -284 256
-528 695 -900 80 -67 189 -160 244 -207 649 -558 1921 -959 3701 -1170 669
-79 1386 -127 1915 -129 253 -1 324 2 415 17 237 40 461 107 1014 306 317 114
465 160 701 217 257 62 361 102 484 182 122 81 229 208 290 345 82 187 121
589 74 787 -34 147 -145 453 -279 767 -21 51 -39 97 -39 102 0 13 27 15 32 2
2 -5 21 -20 42 -35 32 -21 50 -26 102 -26 l63 0 -6 -97 c-5 -90 -4 -99 15
-116 29 -27 80 -36 227 -43 147 -7 256 5 295 34 33 25 32 66 -4 149 -78 182
-55 414 46 468 20 11 40 16 44 12 4 -4 10 -35 12 -68 6 -76 25 -93 89 -79 72
17 149 56 191 98 78 78 89 181 39 343 -23 72 -83 172 -111 182 -20 8 -128 281
-247 630 -61 177 -140 408 -176 512 -185 540 -435 1226 -605 1654 -130 330
-171 495 -213 858 -65 565 -68 1703 -6 2545 l8 113 -64 150 c-90 209 -310 652
-378 760 -64 103 -112 156 -170 190 -87 51 -361 143 -700 236 -104 28 -219 66
-255 84 -110 55 -233 94 -538 170 -161 40 -296 75 -298 78 -3 3 8 27 26 52 51
74 108 205 131 301 27 114 23 256 -10 354 -59 173 -188 390 -272 460 -37 29
-105 49 -259 76 -92 15 -461 28 -540 18z m69 -529 c327 -41 596 -75 598 -75
20 0 -204 -357 -331 -526 l-38 -51 -256 -12 c-230 -11 -448 -27 -624 -47 l-61
-7 7 79 c4 43 27 219 52 391 24 172 44 315 44 318 0 7 -40 12 609 -70z m2095
-3065 c45 -433 58 -645 66 -1130 9 -500 13 -548 66 -814 148 -739 644 -1985
1216 -3057 349 -654 510 -891 663 -972 l30 -16 -48 -1 c-43 0 -53 4 -83 34
-19 19 -34 41 -34 50 0 21 -40 36 -93 36 -91 -1 -212 -63 -328 -168 -38 -34
-72 -62 -75 -62 -3 0 -38 15 -77 34 -40 19 -100 42 -134 52 -50 14 -64 22 -72
43 -17 48 -297 641 -476 1011 -97 201 -192 404 -211 453 -39 104 -114 255
-188 381 -29 50 -75 134 -101 186 l-48 95 -28 1165 c-15 641 -37 1471 -48
1845 -26 885 -32 1102 -26 1090 2 -5 15 -120 29 -255z m1540 -6369 c5 -8 -83
-22 -93 -15 -4 3 57 22 76 23 6 1 14 -3 17 -8z"/>
</g>
</svg>
